<?xml version="1.0" encoding="UTF-8"?>
<svg width="90px" height="46px" viewBox="0 0 90 46" version="1.1" xmlns="http://www.w3.org/2000/svg" xmlns:xlink="http://www.w3.org/1999/xlink">
    <title>Group 4</title>
    <g id="Page-1" stroke="none" stroke-width="1" fill="none" fill-rule="evenodd">
        <g id="iPhone-8" transform="translate(-255.000000, -217.000000)">
            <g id="Group-4" transform="translate(255.000000, 217.000000)">
                <rect id="Rectangle-Copy-11" stroke="#ffffff" stroke-width="3" x="1.5" y="1.5" width="87" height="43" rx="8"></rect>
                <g id="Group-Copy-6" transform="translate(8.000000, 10.000000)">
                    <g id="box">
                        <path d="M11.590287,1 C13.5358866,1 14.2554625,1.16723049 14.9705154,1.54964496 C15.6084841,1.89083435 16.1091657,2.39151591 16.450355,3.0294846 C16.8327695,3.74453748 17,4.46411337 17,6.409713 L17,6.409713 L17,19.590287 C17,21.5358866 16.8327695,22.2554625 16.450355,22.9705154 C16.1091657,23.6084841 15.6084841,24.1091657 14.9705154,24.450355 C14.2554625,24.8327695 13.5358866,25 11.590287,25 L11.590287,25 L6.409713,25 C4.46411337,25 3.74453748,24.8327695 3.0294846,24.450355 C2.39151591,24.1091657 1.89083435,23.6084841 1.54964496,22.9705154 C1.16723049,22.2554625 1,21.5358866 1,19.590287 L1,19.590287 L1,6.409713 C1,4.46411337 1.16723049,3.74453748 1.54964496,3.0294846 C1.89083435,2.39151591 2.39151591,1.89083435 3.0294846,1.54964496 C3.74453748,1.16723049 4.46411337,1 6.409713,1 L6.409713,1 Z" id="Rectangle" stroke="#ffffff" stroke-width="2"></path>
                        <g id="icon2" transform="translate(4.500000, 9.000000)" fill="#ffffff">
                            <path d="M1,0 L8,0 C8.55228475,-1.01453063e-16 9,0.44771525 9,1 C9,1.55228475 8.55228475,2 8,2 L7.95838869,2 L7.95838869,2 L1,2 C0.44771525,2 -4.33869274e-17,1.55228475 0,1 C-6.76353751e-17,0.44771525 0.44771525,1.01453063e-16 1,0 Z" id="Rectangle"></path>
                            <path d="M1,4 L8,4 C8.55228475,4 9,4.44771525 9,5 C9,5.55228475 8.55228475,6 8,6 L7.95838869,6 L7.95838869,6 L1,6 C0.44771525,6 -4.33869274e-17,5.55228475 0,5 C-6.76353751e-17,4.44771525 0.44771525,4 1,4 Z" id="Rectangle-Copy-3"></path>
                            <path d="M1,8 L8,8 C8.55228475,8 9,8.44771525 9,9 C9,9.55228475 8.55228475,10 8,10 L7.95838869,10 L7.95838869,10 L1,10 C0.44771525,10 -4.33869274e-17,9.55228475 0,9 C-6.76353751e-17,8.44771525 0.44771525,8 1,8 Z" id="Rectangle-Copy-4"></path>
                        </g>
                    </g>
                    <g id="box" transform="translate(19.000000, 0.000000)">
                        <path d="M11.590287,1 C13.5358866,1 14.2554625,1.16723049 14.9705154,1.54964496 C15.6084841,1.89083435 16.1091657,2.39151591 16.450355,3.0294846 C16.8327695,3.74453748 17,4.46411337 17,6.409713 L17,6.409713 L17,19.590287 C17,21.5358866 16.8327695,22.2554625 16.450355,22.9705154 C16.1091657,23.6084841 15.6084841,24.1091657 14.9705154,24.450355 C14.2554625,24.8327695 13.5358866,25 11.590287,25 L11.590287,25 L6.409713,25 C4.46411337,25 3.74453748,24.8327695 3.0294846,24.450355 C2.39151591,24.1091657 1.89083435,23.6084841 1.54964496,22.9705154 C1.16723049,22.2554625 1,21.5358866 1,19.590287 L1,19.590287 L1,6.409713 C1,4.46411337 1.16723049,3.74453748 1.54964496,3.0294846 C1.89083435,2.39151591 2.39151591,1.89083435 3.0294846,1.54964496 C3.74453748,1.16723049 4.46411337,1 6.409713,1 L6.409713,1 Z" id="Rectangle" stroke="#ffffff" stroke-width="2"></path>
                        <g id="icon2" transform="translate(4.500000, 9.000000)" fill="#ffffff">
                            <path d="M1,0 L8,0 C8.55228475,-1.01453063e-16 9,0.44771525 9,1 C9,1.55228475 8.55228475,2 8,2 L7.95838869,2 L7.95838869,2 L1,2 C0.44771525,2 -4.33869274e-17,1.55228475 0,1 C-6.76353751e-17,0.44771525 0.44771525,1.01453063e-16 1,0 Z" id="Rectangle"></path>
                            <path d="M1,4 L8,4 C8.55228475,4 9,4.44771525 9,5 C9,5.55228475 8.55228475,6 8,6 L7.95838869,6 L7.95838869,6 L1,6 C0.44771525,6 -4.33869274e-17,5.55228475 0,5 C-6.76353751e-17,4.44771525 0.44771525,4 1,4 Z" id="Rectangle-Copy-3"></path>
                            <path d="M1,8 L8,8 C8.55228475,8 9,8.44771525 9,9 C9,9.55228475 8.55228475,10 8,10 L7.95838869,10 L7.95838869,10 L1,10 C0.44771525,10 -4.33869274e-17,9.55228475 0,9 C-6.76353751e-17,8.44771525 0.44771525,8 1,8 Z" id="Rectangle-Copy-4"></path>
                        </g>
                    </g>
                    <g id="box" transform="translate(38.000000, 0.000000)">
                        <path d="M11.590287,1 C13.5358866,1 14.2554625,1.16723049 14.9705154,1.54964496 C15.6084841,1.89083435 16.1091657,2.39151591 16.450355,3.0294846 C16.8327695,3.74453748 17,4.46411337 17,6.409713 L17,6.409713 L17,19.590287 C17,21.5358866 16.8327695,22.2554625 16.450355,22.9705154 C16.1091657,23.6084841 15.6084841,24.1091657 14.9705154,24.450355 C14.2554625,24.8327695 13.5358866,25 11.590287,25 L11.590287,25 L6.409713,25 C4.46411337,25 3.74453748,24.8327695 3.0294846,24.450355 C2.39151591,24.1091657 1.89083435,23.6084841 1.54964496,22.9705154 C1.16723049,22.2554625 1,21.5358866 1,19.590287 L1,19.590287 L1,6.409713 C1,4.46411337 1.16723049,3.74453748 1.54964496,3.0294846 C1.89083435,2.39151591 2.39151591,1.89083435 3.0294846,1.54964496 C3.74453748,1.16723049 4.46411337,1 6.409713,1 L6.409713,1 Z" id="Rectangle" stroke="#ffffff" stroke-width="2"></path>
                        <g id="icon2" transform="translate(4.500000, 9.000000)" fill="#ffffff">
                            <path d="M1,0 L8,0 C8.55228475,-1.01453063e-16 9,0.44771525 9,1 C9,1.55228475 8.55228475,2 8,2 L7.95838869,2 L7.95838869,2 L1,2 C0.44771525,2 -4.33869274e-17,1.55228475 0,1 C-6.76353751e-17,0.44771525 0.44771525,1.01453063e-16 1,0 Z" id="Rectangle"></path>
                            <path d="M1,4 L8,4 C8.55228475,4 9,4.44771525 9,5 C9,5.55228475 8.55228475,6 8,6 L7.95838869,6 L7.95838869,6 L1,6 C0.44771525,6 -4.33869274e-17,5.55228475 0,5 C-6.76353751e-17,4.44771525 0.44771525,4 1,4 Z" id="Rectangle-Copy-3"></path>
                            <path d="M1,8 L8,8 C8.55228475,8 9,8.44771525 9,9 C9,9.55228475 8.55228475,10 8,10 L7.95838869,10 L7.95838869,10 L1,10 C0.44771525,10 -4.33869274e-17,9.55228475 0,9 C-6.76353751e-17,8.44771525 0.44771525,8 1,8 Z" id="Rectangle-Copy-4"></path>
                        </g>
                    </g>
                    <g id="box" transform="translate(57.000000, 0.000000)">
                        <path d="M11.590287,1 C13.5358866,1 14.2554625,1.16723049 14.9705154,1.54964496 C15.6084841,1.89083435 16.1091657,2.39151591 16.450355,3.0294846 C16.8327695,3.74453748 17,4.46411337 17,6.409713 L17,6.409713 L17,19.590287 C17,21.5358866 16.8327695,22.2554625 16.450355,22.9705154 C16.1091657,23.6084841 15.6084841,24.1091657 14.9705154,24.450355 C14.2554625,24.8327695 13.5358866,25 11.590287,25 L11.590287,25 L6.409713,25 C4.46411337,25 3.74453748,24.8327695 3.0294846,24.450355 C2.39151591,24.1091657 1.89083435,23.6084841 1.54964496,22.9705154 C1.16723049,22.2554625 1,21.5358866 1,19.590287 L1,19.590287 L1,6.409713 C1,4.46411337 1.16723049,3.74453748 1.54964496,3.0294846 C1.89083435,2.39151591 2.39151591,1.89083435 3.0294846,1.54964496 C3.74453748,1.16723049 4.46411337,1 6.409713,1 L6.409713,1 Z" id="Rectangle" stroke="#ffffff" stroke-width="2"></path>
                        <g id="icon2" transform="translate(4.500000, 9.000000)" fill="#ffffff">
                            <path d="M1,0 L8,0 C8.55228475,-1.01453063e-16 9,0.44771525 9,1 C9,1.55228475 8.55228475,2 8,2 L7.95838869,2 L7.95838869,2 L1,2 C0.44771525,2 -4.33869274e-17,1.55228475 0,1 C-6.76353751e-17,0.44771525 0.44771525,1.01453063e-16 1,0 Z" id="Rectangle"></path>
                            <path d="M1,4 L8,4 C8.55228475,4 9,4.44771525 9,5 C9,5.55228475 8.55228475,6 8,6 L7.95838869,6 L7.95838869,6 L1,6 C0.44771525,6 -4.33869274e-17,5.55228475 0,5 C-6.76353751e-17,4.44771525 0.44771525,4 1,4 Z" id="Rectangle-Copy-3"></path>
                            <path d="M1,8 L8,8 C8.55228475,8 9,8.44771525 9,9 C9,9.55228475 8.55228475,10 8,10 L7.95838869,10 L7.95838869,10 L1,10 C0.44771525,10 -4.33869274e-17,9.55228475 0,9 C-6.76353751e-17,8.44771525 0.44771525,8 1,8 Z" id="Rectangle-Copy-4"></path>
                        </g>
                    </g>
                </g>
            </g>
        </g>
    </g>
</svg>