<?xml version="1.0" encoding="UTF-8"?>
<svg width="90px" height="46px" viewBox="0 0 90 46" version="1.1" xmlns="http://www.w3.org/2000/svg" xmlns:xlink="http://www.w3.org/1999/xlink">
    <title>Group</title>
    <g id="Page-1" stroke="none" stroke-width="1" fill="none" fill-rule="evenodd">
        <g id="iPhone-8" transform="translate(-155.000000, -157.000000)">
            <g id="Group" transform="translate(155.000000, 157.000000)">
                <g id="box" transform="translate(7.000000, 10.000000)">
                    <path d="M10.590287,1 C12.5358866,1 13.2554625,1.16723049 13.9705154,1.54964496 C14.6084841,1.89083435 15.1091657,2.39151591 15.450355,3.0294846 C15.8327695,3.74453748 16,4.46411337 16,6.409713 L16,6.409713 L16,19.590287 C16,21.5358866 15.8327695,22.2554625 15.450355,22.9705154 C15.1091657,23.6084841 14.6084841,24.1091657 13.9705154,24.450355 C13.2554625,24.8327695 12.5358866,25 10.590287,25 L10.590287,25 L6.409713,25 C4.46411337,25 3.74453748,24.8327695 3.0294846,24.450355 C2.39151591,24.1091657 1.89083435,23.6084841 1.54964496,22.9705154 C1.16723049,22.2554625 1,21.5358866 1,19.590287 L1,19.590287 L1,6.409713 C1,4.46411337 1.16723049,3.74453748 1.54964496,3.0294846 C1.89083435,2.39151591 2.39151591,1.89083435 3.0294846,1.54964496 C3.74453748,1.16723049 4.46411337,1 6.409713,1 L6.409713,1 Z" id="Rectangle" stroke="#ffffff" stroke-width="2"></path>
                    <g id="icon2" transform="translate(4.000000, 9.000000)" fill="#ffffff">
                        <path d="M1,0 L8,0 C8.55228475,-1.01453063e-16 9,0.44771525 9,1 C9,1.55228475 8.55228475,2 8,2 L7.95838869,2 L7.95838869,2 L1,2 C0.44771525,2 -4.33869274e-17,1.55228475 0,1 C-6.76353751e-17,0.44771525 0.44771525,1.01453063e-16 1,0 Z" id="Rectangle"></path>
                        <path d="M1,4 L8,4 C8.55228475,4 9,4.44771525 9,5 C9,5.55228475 8.55228475,6 8,6 L7.95838869,6 L7.95838869,6 L1,6 C0.44771525,6 -4.33869274e-17,5.55228475 0,5 C-6.76353751e-17,4.44771525 0.44771525,4 1,4 Z" id="Rectangle-Copy-3"></path>
                        <path d="M1,8 L8,8 C8.55228475,8 9,8.44771525 9,9 C9,9.55228475 8.55228475,10 8,10 L7.95838869,10 L7.95838869,10 L1,10 C0.44771525,10 -4.33869274e-17,9.55228475 0,9 C-6.76353751e-17,8.44771525 0.44771525,8 1,8 Z" id="Rectangle-Copy-4"></path>
                    </g>
                </g>
                <g id="box-copy-4" transform="translate(27.000000, 10.000000)">
                    <path d="M10.590287,1 C12.5358866,1 13.2554625,1.16723049 13.9705154,1.54964496 C14.6084841,1.89083435 15.1091657,2.39151591 15.450355,3.0294846 C15.8327695,3.74453748 16,4.46411337 16,6.409713 L16,6.409713 L16,19.590287 C16,21.5358866 15.8327695,22.2554625 15.450355,22.9705154 C15.1091657,23.6084841 14.6084841,24.1091657 13.9705154,24.450355 C13.2554625,24.8327695 12.5358866,25 10.590287,25 L10.590287,25 L6.409713,25 C4.46411337,25 3.74453748,24.8327695 3.0294846,24.450355 C2.39151591,24.1091657 1.89083435,23.6084841 1.54964496,22.9705154 C1.16723049,22.2554625 1,21.5358866 1,19.590287 L1,19.590287 L1,6.409713 C1,4.46411337 1.16723049,3.74453748 1.54964496,3.0294846 C1.89083435,2.39151591 2.39151591,1.89083435 3.0294846,1.54964496 C3.74453748,1.16723049 4.46411337,1 6.409713,1 L6.409713,1 Z" id="Rectangle" stroke="#ffffff" stroke-width="2"></path>
                    <g id="icon2" transform="translate(4.000000, 9.000000)" fill="#ffffff">
                        <path d="M1,0 L8,0 C8.55228475,-1.01453063e-16 9,0.44771525 9,1 C9,1.55228475 8.55228475,2 8,2 L7.95838869,2 L7.95838869,2 L1,2 C0.44771525,2 -4.33869274e-17,1.55228475 0,1 C-6.76353751e-17,0.44771525 0.44771525,1.01453063e-16 1,0 Z" id="Rectangle"></path>
                        <path d="M1,4 L8,4 C8.55228475,4 9,4.44771525 9,5 C9,5.55228475 8.55228475,6 8,6 L7.95838869,6 L7.95838869,6 L1,6 C0.44771525,6 -4.33869274e-17,5.55228475 0,5 C-6.76353751e-17,4.44771525 0.44771525,4 1,4 Z" id="Rectangle-Copy-3"></path>
                        <path d="M1,8 L8,8 C8.55228475,8 9,8.44771525 9,9 C9,9.55228475 8.55228475,10 8,10 L7.95838869,10 L7.95838869,10 L1,10 C0.44771525,10 -4.33869274e-17,9.55228475 0,9 C-6.76353751e-17,8.44771525 0.44771525,8 1,8 Z" id="Rectangle-Copy-4"></path>
                    </g>
                </g>
                <g id="box-copy-3" transform="translate(47.000000, 10.000000)">
                    <path d="M6.409713,1 L30.590287,1 C32.5358866,1 33.2554625,1.16723049 33.9705154,1.54964496 C34.6084841,1.89083435 35.1091657,2.39151591 35.450355,3.0294846 C35.8327695,3.74453748 36,4.46411337 36,6.409713 L36,6.409713 L36,19.590287 C36,21.5358866 35.8327695,22.2554625 35.450355,22.9705154 C35.1091657,23.6084841 34.6084841,24.1091657 33.9705154,24.450355 C33.2554625,24.8327695 32.5358866,25 30.590287,25 L30.590287,25 L6.409713,25 C4.46411337,25 3.74453748,24.8327695 3.0294846,24.450355 C2.39151591,24.1091657 1.89083435,23.6084841 1.54964496,22.9705154 C1.16723049,22.2554625 1,21.5358866 1,19.590287 L1,19.590287 L1,6.409713 C1,4.46411337 1.16723049,3.74453748 1.54964496,3.0294846 C1.89083435,2.39151591 2.39151591,1.89083435 3.0294846,1.54964496 C3.74453748,1.16723049 4.46411337,1 6.409713,1 L6.409713,1 Z" id="Rectangle" stroke="#ffffff" stroke-width="2"></path>
                    <g id="icon2" transform="translate(9.000000, 9.000000)" fill="#ffffff">
                        <path d="M1,0 L18,0 C18.5522847,-1.01453063e-16 19,0.44771525 19,1 C19,1.55228475 18.5522847,2 18,2 L16.8010428,2 L16.8010428,2 L1,2 C0.44771525,2 6.76353751e-17,1.55228475 0,1 C-6.76353751e-17,0.44771525 0.44771525,1.01453063e-16 1,0 Z" id="Rectangle"></path>
                        <path d="M1,4 L18,4 C18.5522847,4 19,4.44771525 19,5 C19,5.55228475 18.5522847,6 18,6 L16.8010428,6 L16.8010428,6 L1,6 C0.44771525,6 6.76353751e-17,5.55228475 0,5 C-6.76353751e-17,4.44771525 0.44771525,4 1,4 Z" id="Rectangle-Copy-3"></path>
                        <path d="M1,8 L18,8 C18.5522847,8 19,8.44771525 19,9 C19,9.55228475 18.5522847,10 18,10 L16.8010428,10 L16.8010428,10 L1,10 C0.44771525,10 6.76353751e-17,9.55228475 0,9 C-6.76353751e-17,8.44771525 0.44771525,8 1,8 Z" id="Rectangle-Copy-4"></path>
                    </g>
                </g>
                <rect id="Rectangle" stroke="#ffffff" stroke-width="3" x="1.5" y="1.5" width="87" height="43" rx="8"></rect>
            </g>
        </g>
    </g>
</svg>