<?xml version="1.0" encoding="UTF-8"?>
<svg width="80px" height="40px" viewBox="0 0 80 40" version="1.1" xmlns="http://www.w3.org/2000/svg" xmlns:xlink="http://www.w3.org/1999/xlink">
    <title>Group 6633 Copy 2</title>
    <g id="Page-1" stroke="none" stroke-width="1" fill="none" fill-rule="evenodd">
        <g id="iPhone-8" transform="translate(-160.000000, -45.000000)">
            <g id="Group-6633-Copy-2" transform="translate(160.000000, 45.000000)">
                <g id="Group-3" transform="translate(27.000000, 7.000000)">
                    <g id="icon2-copy-2" transform="translate(5.000000, 7.000000)" fill="#ffffff">
                        <path d="M1,0 L35,0 C35.5522847,-1.01453063e-16 36,0.44771525 36,1 C36,1.55228475 35.5522847,2 35,2 L31.8335548,2 L31.8335548,2 L1,2 C0.44771525,2 -4.33869274e-17,1.55228475 0,1 C-6.76353751e-17,0.44771525 0.44771525,1.01453063e-16 1,0 Z" id="Rectangle"></path>
                        <path d="M1,5 L35,5 C35.5522847,5 36,5.44771525 36,6 C36,6.55228475 35.5522847,7 35,7 L31.8335548,7 L31.8335548,7 L1,7 C0.44771525,7 -4.33869274e-17,6.55228475 0,6 C-6.76353751e-17,5.44771525 0.44771525,5 1,5 Z" id="Rectangle-Copy-7"></path>
                        <path d="M1,10 L35,10 C35.5522847,10 36,10.4477153 36,11 C36,11.5522847 35.5522847,12 35,12 L31.8335548,12 L31.8335548,12 L1,12 C0.44771525,12 -4.33869274e-17,11.5522847 0,11 C-6.76353751e-17,10.4477153 0.44771525,10 1,10 Z" id="Rectangle-Copy-8"></path>
                    </g>
                    <path d="M6.409713,1 L39.590287,1 C41.5358866,1 42.2554625,1.16723049 42.9705154,1.54964496 C43.6084841,1.89083435 44.1091657,2.39151591 44.450355,3.0294846 C44.8327695,3.74453748 45,4.46411337 45,6.409713 L45,6.409713 L45,19.590287 C45,21.5358866 44.8327695,22.2554625 44.450355,22.9705154 C44.1091657,23.6084841 43.6084841,24.1091657 42.9705154,24.450355 C42.2554625,24.8327695 41.5358866,25 39.590287,25 L39.590287,25 L6.409713,25 C4.46411337,25 3.74453748,24.8327695 3.0294846,24.450355 C2.39151591,24.1091657 1.89083435,23.6084841 1.54964496,22.9705154 C1.16723049,22.2554625 1,21.5358866 1,19.590287 L1,19.590287 L1,6.409713 C1,4.46411337 1.16723049,3.74453748 1.54964496,3.0294846 C1.89083435,2.39151591 2.39151591,1.89083435 3.0294846,1.54964496 C3.74453748,1.16723049 4.46411337,1 6.409713,1 L6.409713,1 Z" id="Rectangle-Copy-5" stroke="#ffffff" stroke-width="2"></path>
                </g>
                <g id="Group-2" transform="translate(7.000000, 7.000000)">
                    <g id="icon2-copy-3" transform="translate(3.000000, 7.000000)" fill="#ffffff">
                        <path d="M1,0 L12,0 C12.5522847,-1.01453063e-16 13,0.44771525 13,1 C13,1.55228475 12.5522847,2 12,2 L11.4954503,2 L11.4954503,2 L1,2 C0.44771525,2 -4.33869274e-17,1.55228475 0,1 C-6.76353751e-17,0.44771525 0.44771525,1.01453063e-16 1,0 Z" id="Rectangle"></path>
                        <path d="M1,5 L12,5 C12.5522847,5 13,5.44771525 13,6 C13,6.55228475 12.5522847,7 12,7 L11.4954503,7 L11.4954503,7 L1,7 C0.44771525,7 -4.33869274e-17,6.55228475 0,6 C-6.76353751e-17,5.44771525 0.44771525,5 1,5 Z" id="Rectangle-Copy-3"></path>
                        <path d="M1,10 L12,10 C12.5522847,10 13,10.4477153 13,11 C13,11.5522847 12.5522847,12 12,12 L11.4954503,12 L11.4954503,12 L1,12 C0.44771525,12 -4.33869274e-17,11.5522847 0,11 C-6.76353751e-17,10.4477153 0.44771525,10 1,10 Z" id="Rectangle-Copy-4"></path>
                    </g>
                    <path d="M6.409713,1 L12.590287,1 C14.5358866,1 15.2554625,1.16723049 15.9705154,1.54964496 C16.6084841,1.89083435 17.1091657,2.39151591 17.450355,3.0294846 C17.8327695,3.74453748 18,4.46411337 18,6.409713 L18,6.409713 L18,19.590287 C18,21.5358866 17.8327695,22.2554625 17.450355,22.9705154 C17.1091657,23.6084841 16.6084841,24.1091657 15.9705154,24.450355 C15.2554625,24.8327695 14.5358866,25 12.590287,25 L12.590287,25 L6.409713,25 C4.46411337,25 3.74453748,24.8327695 3.0294846,24.450355 C2.39151591,24.1091657 1.89083435,23.6084841 1.54964496,22.9705154 C1.16723049,22.2554625 1,21.5358866 1,19.590287 L1,19.590287 L1,6.409713 C1,4.46411337 1.16723049,3.74453748 1.54964496,3.0294846 C1.89083435,2.39151591 2.39151591,1.89083435 3.0294846,1.54964496 C3.74453748,1.16723049 4.46411337,1 6.409713,1 L6.409713,1 Z" id="Rectangle-Copy-6" stroke="#ffffff" stroke-width="2"></path>
                </g>
                <rect id="Rectangle-Copy-2" stroke="#ffffff" stroke-width="3" x="1.5" y="1.5" width="77" height="37" rx="8"></rect>
            </g>
        </g>
    </g>
</svg>