<?xml version="1.0" encoding="UTF-8"?>
<svg width="90px" height="46px" viewBox="0 0 90 46" version="1.1" xmlns="http://www.w3.org/2000/svg" xmlns:xlink="http://www.w3.org/1999/xlink">
    <title>icon1 copy</title>
    <g id="Page-1" stroke="none" stroke-width="1" fill="none" fill-rule="evenodd">
        <g id="iPhone-8" transform="translate(-255.000000, -157.000000)">
            <g id="icon1-copy" transform="translate(255.000000, 157.000000)">
                <rect id="Rectangle" stroke="#ffffff" stroke-width="3" x="1.5" y="1.5" width="87" height="43" rx="8"></rect>
                <g id="Group" transform="translate(12.000000, 10.000000)">
                    <g id="box">
                        <path d="M6.409713,1 L13.590287,1 C15.5358866,1 16.2554625,1.16723049 16.9705154,1.54964496 C17.6084841,1.89083435 18.1091657,2.39151591 18.450355,3.0294846 C18.8327695,3.74453748 19,4.46411337 19,6.409713 L19,6.409713 L19,19.590287 C19,21.5358866 18.8327695,22.2554625 18.450355,22.9705154 C18.1091657,23.6084841 17.6084841,24.1091657 16.9705154,24.450355 C16.2554625,24.8327695 15.5358866,25 13.590287,25 L13.590287,25 L6.409713,25 C4.46411337,25 3.74453748,24.8327695 3.0294846,24.450355 C2.39151591,24.1091657 1.89083435,23.6084841 1.54964496,22.9705154 C1.16723049,22.2554625 1,21.5358866 1,19.590287 L1,19.590287 L1,6.409713 C1,4.46411337 1.16723049,3.74453748 1.54964496,3.0294846 C1.89083435,2.39151591 2.39151591,1.89083435 3.0294846,1.54964496 C3.74453748,1.16723049 4.46411337,1 6.409713,1 L6.409713,1 Z" id="Rectangle" stroke="#ffffff" stroke-width="2"></path>
                        <g id="icon2" transform="translate(5.000000, 9.000000)" fill="#ffffff">
                            <path d="M1,0 L9,0 C9.55228475,-1.01453063e-16 10,0.44771525 10,1 C10,1.55228475 9.55228475,2 9,2 L8.8426541,2 L8.8426541,2 L1,2 C0.44771525,2 9.55813795e-16,1.55228475 0,1 C-6.76353751e-17,0.44771525 0.44771525,1.01453063e-16 1,0 Z" id="Rectangle"></path>
                            <path d="M1,4 L9,4 C9.55228475,4 10,4.44771525 10,5 C10,5.55228475 9.55228475,6 9,6 L8.8426541,6 L8.8426541,6 L1,6 C0.44771525,6 9.55813795e-16,5.55228475 0,5 C-6.76353751e-17,4.44771525 0.44771525,4 1,4 Z" id="Rectangle-Copy-3"></path>
                            <path d="M1,8 L9,8 C9.55228475,8 10,8.44771525 10,9 C10,9.55228475 9.55228475,10 9,10 L8.8426541,10 L8.8426541,10 L1,10 C0.44771525,10 9.55813795e-16,9.55228475 0,9 C-6.76353751e-17,8.44771525 0.44771525,8 1,8 Z" id="Rectangle-Copy-4"></path>
                        </g>
                    </g>
                    <g id="box-copy" transform="translate(23.000000, 0.000000)">
                        <path d="M6.409713,1 L13.590287,1 C15.5358866,1 16.2554625,1.16723049 16.9705154,1.54964496 C17.6084841,1.89083435 18.1091657,2.39151591 18.450355,3.0294846 C18.8327695,3.74453748 19,4.46411337 19,6.409713 L19,6.409713 L19,19.590287 C19,21.5358866 18.8327695,22.2554625 18.450355,22.9705154 C18.1091657,23.6084841 17.6084841,24.1091657 16.9705154,24.450355 C16.2554625,24.8327695 15.5358866,25 13.590287,25 L13.590287,25 L6.409713,25 C4.46411337,25 3.74453748,24.8327695 3.0294846,24.450355 C2.39151591,24.1091657 1.89083435,23.6084841 1.54964496,22.9705154 C1.16723049,22.2554625 1,21.5358866 1,19.590287 L1,19.590287 L1,6.409713 C1,4.46411337 1.16723049,3.74453748 1.54964496,3.0294846 C1.89083435,2.39151591 2.39151591,1.89083435 3.0294846,1.54964496 C3.74453748,1.16723049 4.46411337,1 6.409713,1 L6.409713,1 Z" id="Rectangle" stroke="#ffffff" stroke-width="2"></path>
                        <g id="icon2" transform="translate(5.000000, 9.000000)" fill="#ffffff">
                            <path d="M1,0 L9,0 C9.55228475,-1.01453063e-16 10,0.44771525 10,1 C10,1.55228475 9.55228475,2 9,2 L8.8426541,2 L8.8426541,2 L1,2 C0.44771525,2 9.55813795e-16,1.55228475 0,1 C-6.76353751e-17,0.44771525 0.44771525,1.01453063e-16 1,0 Z" id="Rectangle"></path>
                            <path d="M1,4 L9,4 C9.55228475,4 10,4.44771525 10,5 C10,5.55228475 9.55228475,6 9,6 L8.8426541,6 L8.8426541,6 L1,6 C0.44771525,6 9.55813795e-16,5.55228475 0,5 C-6.76353751e-17,4.44771525 0.44771525,4 1,4 Z" id="Rectangle-Copy-3"></path>
                            <path d="M1,8 L9,8 C9.55228475,8 10,8.44771525 10,9 C10,9.55228475 9.55228475,10 9,10 L8.8426541,10 L8.8426541,10 L1,10 C0.44771525,10 9.55813795e-16,9.55228475 0,9 C-6.76353751e-17,8.44771525 0.44771525,8 1,8 Z" id="Rectangle-Copy-4"></path>
                        </g>
                    </g>
                    <g id="box-copy-2" transform="translate(46.000000, 0.000000)">
                        <path d="M6.409713,1 L13.590287,1 C15.5358866,1 16.2554625,1.16723049 16.9705154,1.54964496 C17.6084841,1.89083435 18.1091657,2.39151591 18.450355,3.0294846 C18.8327695,3.74453748 19,4.46411337 19,6.409713 L19,6.409713 L19,19.590287 C19,21.5358866 18.8327695,22.2554625 18.450355,22.9705154 C18.1091657,23.6084841 17.6084841,24.1091657 16.9705154,24.450355 C16.2554625,24.8327695 15.5358866,25 13.590287,25 L13.590287,25 L6.409713,25 C4.46411337,25 3.74453748,24.8327695 3.0294846,24.450355 C2.39151591,24.1091657 1.89083435,23.6084841 1.54964496,22.9705154 C1.16723049,22.2554625 1,21.5358866 1,19.590287 L1,19.590287 L1,6.409713 C1,4.46411337 1.16723049,3.74453748 1.54964496,3.0294846 C1.89083435,2.39151591 2.39151591,1.89083435 3.0294846,1.54964496 C3.74453748,1.16723049 4.46411337,1 6.409713,1 L6.409713,1 Z" id="Rectangle" stroke="#ffffff" stroke-width="2"></path>
                        <g id="icon2" transform="translate(5.000000, 9.000000)" fill="#ffffff">
                            <path d="M1,0 L9,0 C9.55228475,-1.01453063e-16 10,0.44771525 10,1 C10,1.55228475 9.55228475,2 9,2 L8.8426541,2 L8.8426541,2 L1,2 C0.44771525,2 9.55813795e-16,1.55228475 0,1 C-6.76353751e-17,0.44771525 0.44771525,1.01453063e-16 1,0 Z" id="Rectangle"></path>
                            <path d="M1,4 L9,4 C9.55228475,4 10,4.44771525 10,5 C10,5.55228475 9.55228475,6 9,6 L8.8426541,6 L8.8426541,6 L1,6 C0.44771525,6 9.55813795e-16,5.55228475 0,5 C-6.76353751e-17,4.44771525 0.44771525,4 1,4 Z" id="Rectangle-Copy-3"></path>
                            <path d="M1,8 L9,8 C9.55228475,8 10,8.44771525 10,9 C10,9.55228475 9.55228475,10 9,10 L8.8426541,10 L8.8426541,10 L1,10 C0.44771525,10 9.55813795e-16,9.55228475 0,9 C-6.76353751e-17,8.44771525 0.44771525,8 1,8 Z" id="Rectangle-Copy-4"></path>
                        </g>
                    </g>
                </g>
            </g>
        </g>
    </g>
</svg>