<?xml version="1.0" encoding="UTF-8"?>
<svg width="80px" height="40px" viewBox="0 0 80 40" version="1.1" xmlns="http://www.w3.org/2000/svg" xmlns:xlink="http://www.w3.org/1999/xlink">
    <title>icon1 copy</title>
    <g id="Page-1" stroke="none" stroke-width="1" fill="none" fill-rule="evenodd">
        <g id="iPhone-8" transform="translate(-260.000000, -101.000000)">
            <g id="icon1-copy" transform="translate(260.000000, 101.000000)">
                <g id="icon2" transform="translate(14.000000, 15.000000)" fill="#ffffff">
                    <path d="M1,0 L12,0 C12.5522847,-1.01453063e-16 13,0.44771525 13,1 C13,1.55228475 12.5522847,2 12,2 L11.4954503,2 L11.4954503,2 L1,2 C0.44771525,2 -4.33869274e-17,1.55228475 0,1 C-6.76353751e-17,0.44771525 0.44771525,1.01453063e-16 1,0 Z" id="Rectangle"></path>
                    <path d="M1,4 L12,4 C12.5522847,4 13,4.44771525 13,5 C13,5.55228475 12.5522847,6 12,6 L11.4954503,6 L11.4954503,6 L1,6 C0.44771525,6 -4.33869274e-17,5.55228475 0,5 C-6.76353751e-17,4.44771525 0.44771525,4 1,4 Z" id="Rectangle-Copy-3"></path>
                    <path d="M1,8 L12,8 C12.5522847,8 13,8.44771525 13,9 C13,9.55228475 12.5522847,10 12,10 L11.4954503,10 L11.4954503,10 L1,10 C0.44771525,10 -4.33869274e-17,9.55228475 0,9 C-6.76353751e-17,8.44771525 0.44771525,8 1,8 Z" id="Rectangle-Copy-4"></path>
                </g>
                <g id="icon2-copy" transform="translate(54.000000, 15.000000)" fill="#ffffff">
                    <path d="M1,0 L12,0 C12.5522847,-1.01453063e-16 13,0.44771525 13,1 C13,1.55228475 12.5522847,2 12,2 L11.4954503,2 L11.4954503,2 L1,2 C0.44771525,2 -4.33869274e-17,1.55228475 0,1 C-6.76353751e-17,0.44771525 0.44771525,1.01453063e-16 1,0 Z" id="Rectangle"></path>
                    <path d="M1,4 L12,4 C12.5522847,4 13,4.44771525 13,5 C13,5.55228475 12.5522847,6 12,6 L11.4954503,6 L11.4954503,6 L1,6 C0.44771525,6 -4.33869274e-17,5.55228475 0,5 C-6.76353751e-17,4.44771525 0.44771525,4 1,4 Z" id="Rectangle-Copy-3"></path>
                    <path d="M1,8 L12,8 C12.5522847,8 13,8.44771525 13,9 C13,9.55228475 12.5522847,10 12,10 L11.4954503,10 L11.4954503,10 L1,10 C0.44771525,10 -4.33869274e-17,9.55228475 0,9 C-6.76353751e-17,8.44771525 0.44771525,8 1,8 Z" id="Rectangle-Copy-4"></path>
                </g>
                <rect id="Rectangle" stroke="#ffffff" stroke-width="3" x="1.5" y="1.5" width="77" height="37" rx="8"></rect>
                <path d="M26.590287,8 C28.5358866,8 29.2554625,8.16723049 29.9705154,8.54964496 C30.6084841,8.89083435 31.1091657,9.39151591 31.450355,10.0294846 C31.8327695,10.7445375 32,11.4641134 32,13.409713 L32,13.409713 L32,26.590287 C32,28.5358866 31.8327695,29.2554625 31.450355,29.9705154 C31.1091657,30.6084841 30.6084841,31.1091657 29.9705154,31.450355 C29.2554625,31.8327695 28.5358866,32 26.590287,32 L26.590287,32 L13.409713,32 C11.4641134,32 10.7445375,31.8327695 10.0294846,31.450355 C9.39151591,31.1091657 8.89083435,30.6084841 8.54964496,29.9705154 C8.16723049,29.2554625 8,28.5358866 8,26.590287 L8,26.590287 L8,13.409713 C8,11.4641134 8.16723049,10.7445375 8.54964496,10.0294846 C8.89083435,9.39151591 9.39151591,8.89083435 10.0294846,8.54964496 C10.7445375,8.16723049 11.4641134,8 13.409713,8 L13.409713,8 L26.590287,8 Z" id="Rectangle" stroke="#ffffff" stroke-width="2"></path>
                <path d="M66.590287,8 C68.5358866,8 69.2554625,8.16723049 69.9705154,8.54964496 C70.6084841,8.89083435 71.1091657,9.39151591 71.450355,10.0294846 C71.8327695,10.7445375 72,11.4641134 72,13.409713 L72,13.409713 L72,26.590287 C72,28.5358866 71.8327695,29.2554625 71.450355,29.9705154 C71.1091657,30.6084841 70.6084841,31.1091657 69.9705154,31.450355 C69.2554625,31.8327695 68.5358866,32 66.590287,32 L66.590287,32 L53.409713,32 C51.4641134,32 50.7445375,31.8327695 50.0294846,31.450355 C49.3915159,31.1091657 48.8908343,30.6084841 48.549645,29.9705154 C48.1672305,29.2554625 48,28.5358866 48,26.590287 L48,26.590287 L48,13.409713 C48,11.4641134 48.1672305,10.7445375 48.549645,10.0294846 C48.8908343,9.39151591 49.3915159,8.89083435 50.0294846,8.54964496 C50.7445375,8.16723049 51.4641134,8 53.409713,8 L53.409713,8 Z" id="Rectangle-Copy" stroke="#ffffff" stroke-width="2"></path>
            </g>
        </g>
    </g>
</svg>