<?xml version="1.0" encoding="UTF-8"?>
<svg width="80px" height="40px" viewBox="0 0 80 40" version="1.1" xmlns="http://www.w3.org/2000/svg" xmlns:xlink="http://www.w3.org/1999/xlink">
    <title>Group 6633</title>
    <g id="Page-1" stroke="none" stroke-width="1" fill="none" fill-rule="evenodd">
        <g id="iPhone-8" transform="translate(-60.000000, -100.000000)">
            <g id="Group-6633" transform="translate(60.000000, 100.000000)">
                <g id="Group-3" transform="translate(7.000000, 7.000000)">
                    <g id="icon2-copy-2" transform="translate(5.000000, 7.000000)" fill="#ffffff">
                        <path d="M1,0 L24,0 C24.5522847,-1.01453063e-16 25,0.44771525 25,1 C25,1.55228475 24.5522847,2 24,2 L22.1066353,2 L22.1066353,2 L1,2 C0.44771525,2 6.76353751e-17,1.55228475 0,1 C-6.76353751e-17,0.44771525 0.44771525,1.01453063e-16 1,0 Z" id="Rectangle"></path>
                        <path d="M1,5 L24,5 C24.5522847,5 25,5.44771525 25,6 C25,6.55228475 24.5522847,7 24,7 L22.1066353,7 L22.1066353,7 L1,7 C0.44771525,7 6.76353751e-17,6.55228475 0,6 C-6.76353751e-17,5.44771525 0.44771525,5 1,5 Z" id="Rectangle-Copy-7"></path>
                        <path d="M1,10 L24,10 C24.5522847,10 25,10.4477153 25,11 C25,11.5522847 24.5522847,12 24,12 L22.1066353,12 L22.1066353,12 L1,12 C0.44771525,12 6.76353751e-17,11.5522847 0,11 C-6.76353751e-17,10.4477153 0.44771525,10 1,10 Z" id="Rectangle-Copy-8"></path>
                    </g>
                    <path d="M6.409713,1 L29.590287,1 C31.5358866,1 32.2554625,1.16723049 32.9705154,1.54964496 C33.6084841,1.89083435 34.1091657,2.39151591 34.450355,3.0294846 C34.8327695,3.74453748 35,4.46411337 35,6.409713 L35,6.409713 L35,19.590287 C35,21.5358866 34.8327695,22.2554625 34.450355,22.9705154 C34.1091657,23.6084841 33.6084841,24.1091657 32.9705154,24.450355 C32.2554625,24.8327695 31.5358866,25 29.590287,25 L29.590287,25 L6.409713,25 C4.46411337,25 3.74453748,24.8327695 3.0294846,24.450355 C2.39151591,24.1091657 1.89083435,23.6084841 1.54964496,22.9705154 C1.16723049,22.2554625 1,21.5358866 1,19.590287 L1,19.590287 L1,6.409713 C1,4.46411337 1.16723049,3.74453748 1.54964496,3.0294846 C1.89083435,2.39151591 2.39151591,1.89083435 3.0294846,1.54964496 C3.74453748,1.16723049 4.46411337,1 6.409713,1 L6.409713,1 Z" id="Rectangle-Copy-5" stroke="#ffffff" stroke-width="2"></path>
                </g>
                <g id="Group-2" transform="translate(47.000000, 7.000000)">
                    <g id="icon2-copy-3" transform="translate(7.000000, 8.000000)" fill="#ffffff">
                        <path d="M1,0 L12,0 C12.5522847,-1.01453063e-16 13,0.44771525 13,1 C13,1.55228475 12.5522847,2 12,2 L11.4954503,2 L11.4954503,2 L1,2 C0.44771525,2 -4.33869274e-17,1.55228475 0,1 C-6.76353751e-17,0.44771525 0.44771525,1.01453063e-16 1,0 Z" id="Rectangle"></path>
                        <path d="M1,4 L12,4 C12.5522847,4 13,4.44771525 13,5 C13,5.55228475 12.5522847,6 12,6 L11.4954503,6 L11.4954503,6 L1,6 C0.44771525,6 -4.33869274e-17,5.55228475 0,5 C-6.76353751e-17,4.44771525 0.44771525,4 1,4 Z" id="Rectangle-Copy-3"></path>
                        <path d="M1,8 L12,8 C12.5522847,8 13,8.44771525 13,9 C13,9.55228475 12.5522847,10 12,10 L11.4954503,10 L11.4954503,10 L1,10 C0.44771525,10 -4.33869274e-17,9.55228475 0,9 C-6.76353751e-17,8.44771525 0.44771525,8 1,8 Z" id="Rectangle-Copy-4"></path>
                    </g>
                    <path d="M6.409713,1 L19.590287,1 C21.5358866,1 22.2554625,1.16723049 22.9705154,1.54964496 C23.6084841,1.89083435 24.1091657,2.39151591 24.450355,3.0294846 C24.8327695,3.74453748 25,4.46411337 25,6.409713 L25,6.409713 L25,19.590287 C25,21.5358866 24.8327695,22.2554625 24.450355,22.9705154 C24.1091657,23.6084841 23.6084841,24.1091657 22.9705154,24.450355 C22.2554625,24.8327695 21.5358866,25 19.590287,25 L19.590287,25 L6.409713,25 C4.46411337,25 3.74453748,24.8327695 3.0294846,24.450355 C2.39151591,24.1091657 1.89083435,23.6084841 1.54964496,22.9705154 C1.16723049,22.2554625 1,21.5358866 1,19.590287 L1,19.590287 L1,6.409713 C1,4.46411337 1.16723049,3.74453748 1.54964496,3.0294846 C1.89083435,2.39151591 2.39151591,1.89083435 3.0294846,1.54964496 C3.74453748,1.16723049 4.46411337,1 6.409713,1 L6.409713,1 Z" id="Rectangle-Copy-6" stroke="#ffffff" stroke-width="2"></path>
                </g>
                <rect id="Rectangle-Copy-2" stroke="#ffffff" stroke-width="3" x="1.5" y="1.5" width="77" height="37" rx="8"></rect>
            </g>
        </g>
    </g>
</svg>