<?xml version="1.0" encoding="UTF-8"?>
<svg width="80px" height="40px" viewBox="0 0 80 40" version="1.1" xmlns="http://www.w3.org/2000/svg" xmlns:xlink="http://www.w3.org/1999/xlink">
    <title>icon1 copy</title>
    <g id="Page-1" stroke="none" stroke-width="1" fill="none" fill-rule="evenodd">
        <g id="iPhone-8" transform="translate(-261.000000, -39.000000)">
            <g id="icon1-copy" transform="translate(261.000000, 39.000000)">
                <rect id="Rectangle" stroke="#ffffff" stroke-width="3" x="1.5" y="1.5" width="77" height="37" rx="8"></rect>
                <path d="M13.409713,8 L68.590287,8 C70.5358866,8 71.2554625,8.16723049 71.9705154,8.54964496 C72.6084841,8.89083435 73.1091657,9.39151591 73.450355,10.0294846 C73.8327695,10.7445375 74,11.4641134 74,13.409713 L74,13.409713 L74,27.590287 C74,29.5358866 73.8327695,30.2554625 73.450355,30.9705154 C73.1091657,31.6084841 72.6084841,32.1091657 71.9705154,32.450355 C71.2554625,32.8327695 70.5358866,33 68.590287,33 L68.590287,33 L13.409713,33 C11.4641134,33 10.7445375,32.8327695 10.0294846,32.450355 C9.39151591,32.1091657 8.89083435,31.6084841 8.54964496,30.9705154 C8.16723049,30.2554625 8,29.5358866 8,27.590287 L8,27.590287 L8,13.409713 C8,11.4641134 8.16723049,10.7445375 8.54964496,10.0294846 C8.89083435,9.39151591 9.39151591,8.89083435 10.0294846,8.54964496 C10.7445375,8.16723049 11.4641134,8 13.409713,8 L13.409713,8 Z" id="Rectangle" stroke="#ffffff" stroke-width="2"></path>
                <g id="icon2" transform="translate(24.000000, 14.000000)" fill="#ffffff">
                    <path d="M1.08333333,-1.5308085e-17 L31.9166667,1.5308085e-17 C32.1368727,-2.51431061e-17 32.3306451,0.0469683611 32.4911389,0.134060179 C32.6516327,0.221151997 32.778848,0.348367272 32.8659398,0.508861099 C32.9530316,0.669354926 33,0.863127306 33,1.08333333 C33,1.30353936 32.9530316,1.49731174 32.8659398,1.65780557 C32.778848,1.81829939 32.6516327,1.94551467 32.4911389,2.03260649 C32.3306451,2.11969831 32.1368727,2.16666667 31.9166667,2.16666667 L29.1807585,2.16666667 L29.1807585,2.16666667 L1.08333333,2.16666667 C0.863127306,2.16666667 0.669354926,2.11969831 0.508861099,2.03260649 C0.348367272,1.94551467 0.221151997,1.81829939 0.134060179,1.65780557 C0.0469683611,1.49731174 1.67620707e-17,1.30353936 -1.020539e-17,1.08333333 C-1.67620707e-17,0.863127306 0.0469683611,0.669354926 0.134060179,0.508861099 C0.221151997,0.348367272 0.348367272,0.221151997 0.508861099,0.134060179 C0.669354926,0.0469683611 0.863127306,2.51431061e-17 1.08333333,-1.5308085e-17 Z" id="Rectangle"></path>
                    <path d="M1.08333333,5.41666667 L31.9166667,5.41666667 C32.1368727,5.41666667 32.3306451,5.46363503 32.4911389,5.55072685 C32.6516327,5.63781866 32.778848,5.76503394 32.8659398,5.92552777 C32.9530316,6.08602159 33,6.27979397 33,6.5 C33,6.72020603 32.9530316,6.91397841 32.8659398,7.07447223 C32.778848,7.23496606 32.6516327,7.36218134 32.4911389,7.44927315 C32.3306451,7.53636497 32.1368727,7.58333333 31.9166667,7.58333333 L29.1807585,7.58333333 L29.1807585,7.58333333 L1.08333333,7.58333333 C0.863127306,7.58333333 0.669354926,7.53636497 0.508861099,7.44927315 C0.348367272,7.36218134 0.221151997,7.23496606 0.134060179,7.07447223 C0.0469683611,6.91397841 1.67620707e-17,6.72020603 -1.020539e-17,6.5 C-1.67620707e-17,6.27979397 0.0469683611,6.08602159 0.134060179,5.92552777 C0.221151997,5.76503394 0.348367272,5.63781866 0.508861099,5.55072685 C0.669354926,5.46363503 0.863127306,5.41666667 1.08333333,5.41666667 Z" id="Rectangle-Copy-3"></path>
                    <path d="M1.08333333,10.8333333 L31.9166667,10.8333333 C32.1368727,10.8333333 32.3306451,10.8803017 32.4911389,10.9673935 C32.6516327,11.0544853 32.778848,11.1817006 32.8659398,11.3421944 C32.9530316,11.5026883 33,11.6964606 33,11.9166667 C33,12.1368727 32.9530316,12.3306451 32.8659398,12.4911389 C32.778848,12.6516327 32.6516327,12.778848 32.4911389,12.8659398 C32.3306451,12.9530316 32.1368727,13 31.9166667,13 L29.1807585,13 L29.1807585,13 L1.08333333,13 C0.863127306,13 0.669354926,12.9530316 0.508861099,12.8659398 C0.348367272,12.778848 0.221151997,12.6516327 0.134060179,12.4911389 C0.0469683611,12.3306451 1.67620707e-17,12.1368727 -1.020539e-17,11.9166667 C-1.67620707e-17,11.6964606 0.0469683611,11.5026883 0.134060179,11.3421944 C0.221151997,11.1817006 0.348367272,11.0544853 0.508861099,10.9673935 C0.669354926,10.8803017 0.863127306,10.8333333 1.08333333,10.8333333 Z" id="Rectangle-Copy-4"></path>
                </g>
            </g>
        </g>
    </g>
</svg>